<svg id="_x31__x2C_5px" enable-background="new 0 0 36 36" height="512" viewBox="0 0 36 36" width="512" xmlns="http://www.w3.org/2000/svg"><path d="m31.833 8.377c0 6.917 3.583 11.667 3.583 15s-1.916 10.333-17.249 10.333-17.584-9.417-17.584-13.083c0-17.167 31.25-24.5 31.25-12.25z" fill="#efefef"/><path d="m31.5 6c-.827 0-1.5-.673-1.5-1.5s.673-1.5 1.5-1.5 1.5.673 1.5 1.5-.673 1.5-1.5 1.5zm0-2c-.276 0-.5.224-.5.5s.224.5.5.5.5-.224.5-.5-.224-.5-.5-.5z" fill="#a4afc1"/><path d="m23.25 18.5c0 .599-.954 1.034-1.121 1.574-.174.56.348 1.497.023 1.964-.328.471-1.342.239-1.792.582-.446.339-.547 1.423-1.082 1.605-.517.176-1.205-.633-1.777-.633-.573 0-1.261.808-1.778.633-.535-.182-.637-1.265-1.082-1.605-.45-.343-1.465-.111-1.792-.582-.324-.466.197-1.403.024-1.964-.168-.541-1.121-.975-1.121-1.574s.954-1.034 1.121-1.574c.174-.56-.348-1.497-.023-1.964.328-.471 1.342-.239 1.792-.582.446-.339.547-1.423 1.082-1.605.517-.176 1.205.633 1.777.633.573 0 1.261-.808 1.778-.633.535.182.637 1.265 1.082 1.605.45.343 1.465.111 1.792.582.324.466-.197 1.403-.024 1.964.167.541 1.121.975 1.121 1.574z" fill="#2fdf84"/><g fill="#f3f3f1"><circle cx="25.5" cy="10.5" r="1.75"/><circle cx="27" cy="27" r="2.25"/><circle cx="8.5" cy="27.5" r="1.75"/><circle cx="8" cy="8" r="1.25"/></g><path d="m16.89 22.62c-.45-.343-1.465-.111-1.792-.582-.324-.466.197-1.403.023-1.964-.167-.541-1.121-.975-1.121-1.574s.954-1.034 1.122-1.574c.174-.56-.348-1.497-.023-1.964.328-.471 1.342-.24 1.792-.582.25-.19.392-.611.563-.979-.563-.041-1.227-.796-1.73-.625-.535.182-.637 1.265-1.082 1.605-.45.343-1.465.111-1.792.582-.324.466.197 1.403.023 1.964-.168.541-1.122.975-1.122 1.574s.954 1.033 1.121 1.574c.174.56-.348 1.497-.023 1.964.328.471 1.342.24 1.792.582.446.34.547 1.423 1.082 1.605.503.171 1.167-.584 1.73-.625-.171-.369-.313-.791-.563-.981z" fill="#00b871"/><path d="m26 10.5c0-.536.246-1.009.625-1.33-.305-.258-.694-.42-1.125-.42-.966 0-1.75.784-1.75 1.75s.784 1.75 1.75 1.75c.431 0 .82-.162 1.125-.42-.379-.321-.625-.794-.625-1.33z" fill="#d5dbe1"/><path d="m27 27c0-.831.455-1.548 1.125-1.938-.332-.193-.713-.312-1.125-.312-1.243 0-2.25 1.007-2.25 2.25s1.007 2.25 2.25 2.25c.412 0 .793-.119 1.125-.312-.67-.39-1.125-1.107-1.125-1.938z" fill="#d5dbe1"/><path d="m9 27.5c0-.536.246-1.009.625-1.33-.305-.258-.694-.42-1.125-.42-.966 0-1.75.784-1.75 1.75s.784 1.75 1.75 1.75c.431 0 .82-.162 1.125-.42-.379-.321-.625-.794-.625-1.33z" fill="#d5dbe1"/><path d="m9 8c0-.19.049-.365.125-.526-.2-.425-.625-.724-1.125-.724-.69 0-1.25.56-1.25 1.25s.56 1.25 1.25 1.25c.5 0 .925-.299 1.125-.724-.076-.161-.125-.336-.125-.526z" fill="#d5dbe1"/><path d="m15.468 19.272-.741-1.304.82-.466c.306-.173.589-.512.381-.896l-.356-.66 1.32-.712.356.66c.567 1.051.163 2.276-.961 2.913z"/><path d="m18.27 21.675-1.444-.405.203-.722c.157-.559.511-1.015.996-1.284.514-.283 1.136-.339 1.752-.159l.906.269-.426 1.438-.905-.268c-.226-.067-.44-.056-.6.033-.136.075-.229.202-.278.377z"/><path d="m15.875 25c-.128 0-.26-.019-.394-.064-.611-.208-.865-.792-1.068-1.263-.065-.15-.174-.401-.237-.464-.053-.025-.309-.056-.462-.074-.468-.057-1.11-.133-1.482-.669-.358-.514-.24-1.128-.145-1.621.033-.172.088-.46.067-.552-.03-.064-.214-.24-.336-.356-.345-.331-.818-.783-.818-1.437s.473-1.106.818-1.437c.122-.116.306-.292.34-.369.017-.079-.038-.368-.071-.54-.095-.493-.212-1.106.146-1.621.373-.536 1.014-.612 1.482-.668.153-.019.409-.049.481-.089.043-.048.152-.299.217-.45.204-.47.458-1.054 1.068-1.262.607-.207 1.164.122 1.571.362.139.082.372.219.458.231.065-.012.298-.149.437-.231.407-.24.962-.567 1.571-.363.611.208.865.792 1.068 1.263.065.15.174.401.237.464.053.025.309.056.462.074.468.057 1.11.133 1.482.669.358.514.24 1.128.145 1.621-.033.172-.088.46-.067.552.03.064.214.24.336.356.346.332.819.784.819 1.438s-.473 1.106-.818 1.437c-.122.116-.306.292-.34.369-.017.079.038.368.071.54.095.493.212 1.106-.146 1.621-.373.536-1.014.612-1.482.668-.153.019-.409.049-.481.089-.043.048-.152.299-.217.45-.204.47-.458 1.054-1.068 1.262-.608.206-1.164-.123-1.571-.362-.139-.082-.372-.219-.458-.231-.065.012-.298.149-.437.231-.318.186-.726.426-1.178.426zm1.625-2.158c.466 0 .861.233 1.209.438.101.06.24.141.339.187.03-.087.11-.271.163-.392.159-.366.339-.781.694-1.052.365-.278.81-.332 1.202-.378.117-.014.293-.035.403-.063-.007-.124-.045-.324-.07-.455-.076-.396-.162-.844-.028-1.276.132-.425.451-.73.733-1 .104-.1.268-.256.335-.353-.067-.097-.231-.253-.335-.352-.281-.27-.601-.575-.733-1-.134-.433-.048-.881.028-1.276.025-.131.063-.331.07-.455-.11-.027-.287-.048-.404-.062-.392-.047-.836-.101-1.201-.378-.355-.27-.536-.686-.695-1.052-.048-.111-.12-.276-.18-.384-.098.047-.226.123-.321.179-.349.206-.744.438-1.209.438s-.861-.233-1.209-.438c-.101-.06-.24-.141-.339-.187-.03.087-.11.271-.163.392-.159.366-.339.781-.694 1.052-.365.278-.81.332-1.202.378-.117.014-.293.035-.403.063.007.124.045.324.07.455.076.396.162.844.028 1.276-.132.425-.451.73-.733 1-.123.118-.329.314-.362.398.034-.013.238.188.362.306.281.27.601.575.733 1 .134.433.048.881-.028 1.276-.025.131-.063.331-.07.455.11.027.287.048.404.062.392.047.836.101 1.201.378.355.27.536.686.695 1.052.048.111.12.276.18.384.098-.047.226-.123.321-.179.348-.204.743-.437 1.209-.437zm5.007-4.296h.01z"/><path d="m22.97 21.783h1.5v3.875h-1.5z" transform="matrix(.707 -.707 .707 .707 -9.825 23.72)"/><path d="m11.03 8.075h1.5v7.41h-1.5z" transform="matrix(.707 -.707 .707 .707 -4.879 11.78)"/><path d="m21.033 12.28h3.875v1.5h-3.875z" transform="matrix(.707 -.707 .707 .707 -2.486 20.059)"/><path d="m9.187 23.595h4.935v1.5h-4.935z" transform="matrix(.707 -.707 .707 .707 -13.801 15.372)"/><path d="m25.5 13c-1.378 0-2.5-1.122-2.5-2.5s1.122-2.5 2.5-2.5 2.5 1.122 2.5 2.5-1.122 2.5-2.5 2.5zm0-3.5c-.551 0-1 .449-1 1s.449 1 1 1 1-.449 1-1-.449-1-1-1z"/><path d="m27 30c-1.654 0-3-1.346-3-3s1.346-3 3-3 3 1.346 3 3-1.346 3-3 3zm0-4.5c-.827 0-1.5.673-1.5 1.5s.673 1.5 1.5 1.5 1.5-.673 1.5-1.5-.673-1.5-1.5-1.5z"/><path d="m8.5 30c-1.378 0-2.5-1.122-2.5-2.5s1.122-2.5 2.5-2.5 2.5 1.122 2.5 2.5-1.122 2.5-2.5 2.5zm0-3.5c-.551 0-1 .449-1 1s.449 1 1 1 1-.449 1-1-.449-1-1-1z"/><path d="m8 10c-1.103 0-2-.897-2-2s.897-2 2-2 2 .897 2 2-.897 2-2 2zm0-2.5c-.276 0-.5.224-.5.5s.224.5.5.5.5-.224.5-.5-.224-.5-.5-.5z"/><circle cx="17.5" cy="8.5" r="1.5"/><circle cx="7.5" cy="18.5" r="1.5"/><circle cx="28.5" cy="18.5" r="1.5"/><path d="m8.5 17.75h3v1.5h-3z"/><path d="m23.5 17.75h4v1.5h-4z"/><path d="m16.75 9.5h1.5v3.687h-1.5z"/></svg>